<?xml version="1.0" standalone="no"?>
<!DOCTYPE svg PUBLIC "-//W3C//DTD SVG 20010904//EN"
 "http://www.w3.org/TR/2001/REC-SVG-20010904/DTD/svg10.dtd">
<svg version="1.0" xmlns="http://www.w3.org/2000/svg"
 width="300.000000pt" height="300.000000pt" viewBox="0 0 300.000000 300.000000"
 preserveAspectRatio="xMidYMid meet">
<metadata>
Created by potrace 1.14, written by Peter Selinger 2001-2017
</metadata>
<g transform="translate(0.000000,300.000000) scale(0.100000,-0.100000)"
fill="#000000" stroke="none">
<path d="M1456 2825 c-25 -7 -46 -10 -46 -7 0 2 -7 -1 -15 -8 -8 -7 -15 -9
-15 -6 0 4 -12 -1 -28 -11 -15 -10 -36 -23 -47 -29 -27 -15 -63 -69 -75 -113
-5 -20 -10 -78 -11 -129 l-2 -93 -41 -27 c-22 -15 -43 -29 -46 -32 -11 -12
-82 -50 -93 -50 -7 0 -20 12 -29 28 -9 15 -28 38 -43 52 -26 24 -27 24 -21 4
4 -12 8 -45 11 -73 5 -60 -10 -80 -87 -121 -27 -13 -48 -28 -48 -31 0 -4 -15
-12 -32 -20 -18 -7 -35 -15 -38 -18 -8 -9 -63 -47 -80 -54 -8 -4 -28 -16 -45
-27 -16 -11 -38 -23 -47 -26 -10 -4 -18 -10 -18 -15 0 -5 -5 -9 -10 -9 -6 0
-28 -12 -50 -26 l-40 -27 0 -96 c0 -143 2 -140 -81 -137 -38 1 -73 -1 -79 -4
-11 -7 -16 -777 -5 -789 4 -3 41 -6 83 -6 l77 0 0 -115 0 -115 32 -23 c18 -12
35 -22 38 -22 4 0 25 -12 48 -27 23 -16 51 -33 62 -40 11 -7 51 -31 88 -55 89
-56 134 -83 177 -108 19 -11 49 -29 65 -40 17 -11 37 -23 45 -27 8 -3 47 -27
85 -53 39 -25 77 -49 85 -53 8 -4 31 -17 51 -29 20 -13 58 -36 85 -53 27 -16
73 -46 103 -66 49 -33 58 -36 85 -26 17 5 40 18 52 28 11 11 24 19 28 19 5 0
31 16 57 35 27 19 51 35 54 35 2 0 24 14 48 30 25 17 49 30 55 30 6 0 12 4 14
8 2 5 48 35 103 67 55 32 164 98 242 146 78 49 144 89 146 89 2 0 38 22 80 50
42 27 83 50 92 50 9 0 13 5 10 10 -3 6 1 10 9 10 21 0 27 31 23 131 -2 47 -1
93 2 101 5 12 21 15 74 14 38 0 74 2 80 6 15 9 17 788 2 789 -5 0 -39 2 -75 3
-36 0 -70 4 -76 8 -7 5 -9 44 -7 111 3 92 2 106 -17 127 -11 12 -20 20 -20 16
0 -4 -13 2 -29 13 -15 11 -30 18 -33 16 -3 -3 -13 4 -23 15 -10 11 -24 20 -32
20 -7 0 -13 5 -13 10 0 6 -7 10 -15 10 -8 0 -15 5 -15 10 0 6 -5 10 -11 10 -5
0 -36 17 -67 39 -68 46 -352 217 -402 242 -69 34 -80 52 -81 132 -1 40 0 82 1
94 1 13 -6 49 -16 80 -10 32 -18 61 -18 65 -1 12 -18 24 -76 56 -64 35 -128
44 -194 27z"/>
</g>
</svg>
